<svg id="Coffee" height="512" viewBox="0 0 64 64" width="512" xmlns="http://www.w3.org/2000/svg"><path d="m3 56h58a0 0 0 0 1 0 0v3a2 2 0 0 1 -2 2h-54a2 2 0 0 1 -2-2v-3a0 0 0 0 1 0 0z" fill="#f1f2f2"/><path d="m57 14h-37a4 4 0 0 0 -4 4 4 4 0 0 0 4 4v34h37v-34a4 4 0 0 0 4-4 4 4 0 0 0 -4-4z" fill="#98653d"/><path d="m51 14h-37a4 4 0 0 0 -4 4 4 4 0 0 0 4 4v34h37v-34a4 4 0 0 0 4-4 4 4 0 0 0 -4-4z" fill="#dcab6b"/><path d="m3 43.5a5.5 5.5 0 0 0 5.5 5.5h3.827a14.982 14.982 0 0 0 26.8-13h-28.255a15.524 15.524 0 0 0 -.549 2h-1.823a5.5 5.5 0 0 0 -5.5 5.5zm3 0a2.5 2.5 0 0 1 2.5-2.5h1.5a14.926 14.926 0 0 0 .872 5h-2.372a2.5 2.5 0 0 1 -2.5-2.5z" fill="#ebf0d9"/><g fill="#98653d"><path d="m21 22h2v2h-2z"/><path d="m26 26h2v2h-2z"/><path d="m31 19h2v2h-2z"/><path d="m36 24h2v2h-2z"/><path d="m41 21h2v2h-2z"/><path d="m44 27h2v2h-2z"/><path d="m33 30h2v2h-2z"/><path d="m19 30h2v2h-2z"/><path d="m45 35h2v2h-2z"/></g></svg>