<svg id="Coffee" height="512" viewBox="0 0 64 64" width="512" xmlns="http://www.w3.org/2000/svg"><path d="m47 24a15 15 0 0 0 -30 0h-3v4h36v-4z" fill="#bdfdff"/><path d="m30 9h4v6h-4z" fill="#499f96"/><path d="m39 20a5.045 5.045 0 0 0 -1.005.1c0-.034.005-.067.005-.1a6 6 0 0 0 -12 0 5 5 0 0 0 0 10h13a5 5 0 0 0 0-10z" fill="#e9e9ea"/><path d="m30 3h4v6h-4z" fill="#499f96"/><path d="m44 61h-24l-3-33h30z" fill="#98653d"/><path d="m47 28-.6 7h-28.8l-.6-7z" fill="#cb8652"/><path d="m30 28h4v25h-4z" fill="#499f96"/></svg>