<svg id="Coffee" height="512" viewBox="0 0 64 64" width="512" xmlns="http://www.w3.org/2000/svg"><path d="m53 52h-34a4 4 0 0 1 -4-4v-45h42v45a4 4 0 0 1 -4 4z" fill="#ebf0d9"/><ellipse cx="44.915" cy="46.559" fill="#98653d" rx="6" ry="5" transform="matrix(.819 -.574 .574 .819 -18.582 34.182)"/><ellipse cx="35" cy="46" fill="#7e543b" rx="5" ry="6"/><path d="m60.02 57h-48.04l-.98-5h50z" fill="#bfbaa8"/><path d="m57.5 61h-43l-1-4h45z" fill="#787680"/><path d="m10 16h5v-5h-6a6 6 0 0 0 -6 6v15a6 6 0 0 0 6 6h6v-5h-5a2 2 0 0 1 -2-2v-13a2 2 0 0 1 2-2z" fill="#bfbaa8"/><path d="m48 19.286c0 9.068-12 14-12 14s-12-5.413-12-14a6.54 6.54 0 0 1 12-3.631 6.54 6.54 0 0 1 12 3.631z" fill="#f28dbc"/><path d="m50.37 44.18a8.078 8.078 0 0 1 -1.17.3 3.912 3.912 0 0 0 -1.96.84 4.026 4.026 0 0 0 -1.35 1.64 6.018 6.018 0 0 1 -1.93 2.32 5.918 5.918 0 0 1 -2.76 1.2c-.23.05-.43.09-.65.15a3.711 3.711 0 0 1 -.55-.63 3.912 3.912 0 0 1 -.55-1.1 6.748 6.748 0 0 1 1.36-.38 4.551 4.551 0 0 0 3.31-2.48 6.466 6.466 0 0 1 4.69-3.52c.14-.03.27-.06.4-.09a3.431 3.431 0 0 1 .62.69 3.794 3.794 0 0 1 .54 1.06z" fill="#7e543b"/><path d="m36.7 48.33a4.957 4.957 0 0 1 -.84 2.85 3.456 3.456 0 0 0 -.4.79 3.44 3.44 0 0 1 -.46.03 4.266 4.266 0 0 1 -1.55-.29 5.58 5.58 0 0 1 .69-1.56 3.237 3.237 0 0 0 0-3.64 5.238 5.238 0 0 1 0-5.69 3.456 3.456 0 0 0 .4-.79 3.44 3.44 0 0 1 .46-.03 4.266 4.266 0 0 1 1.55.29 5.58 5.58 0 0 1 -.69 1.56 3.221 3.221 0 0 0 0 3.63 5.01 5.01 0 0 1 .84 2.85z" fill="#3c2415"/><g fill="#fff"><rect height="6" rx="1" width="2" x="17" y="5"/><rect height="3" rx="1" width="2" x="17" y="13"/></g></svg>